<svg xmlns="http://www.w3.org/2000/svg" width="199.57001" height="41.459999"><path fill="#fbfbfe" d="M 62.548828 0 L 62.548828 40.880859 L 69.929688 40.880859 L 69.929688 34.953125 L 74.90625 29.902344 L 83.117188 40.880859 L 91.097656 40.880859 L 79.310547 25.777344 L 91.097656 12.410156 L 83.119141 12.410156 L 69.929688 26.972656 L 69.929688 0 L 62.548828 0 z M 136.66992 0 C 129.49992 2.3684758e-15 126.23047 3.2500001 126.23047 11 L 126.23047 12.419922 L 121.11914 12.419922 L 121.11914 18.960938 L 126.19922 18.960938 L 126.19922 40.880859 L 133.19922 40.880859 L 133.19922 18.960938 L 139.19922 18.960938 L 139.19922 12.419922 L 133.0293 12.419922 L 133.0293 11 C 133.0293 7.47 133.77062 6.3105469 137.14062 6.3105469 L 139.19922 6.3105469 L 139.19922 0 L 136.66992 0 z M 0 2.4101562 L 0 40.880859 L 7.3808594 40.880859 L 7.3808594 28.953125 L 14.210938 21.791016 L 24.568359 40.880859 L 32.548828 40.880859 L 19.425781 17.033203 L 32.548828 2.4101562 L 24.568359 2.4101562 L 7.3808594 20.972656 L 7.3808594 2.4101562 L 0 2.4101562 z M 45.671875 11.839844 C 37.418535 11.674179 30.678866 18.396637 30.822266 26.650391 C 30.822276 34.970391 36.821875 41.460938 45.671875 41.460938 C 53.851205 41.460938 60.482422 34.829728 60.482422 26.650391 C 60.482422 18.471054 53.851215 11.839844 45.671875 11.839844 z M 104.87305 11.839844 C 96.619704 11.674179 89.878084 18.396637 90.021484 26.650391 C 90.021494 34.970391 96.023044 41.460938 104.87305 41.460938 C 113.05238 41.460938 119.68164 34.829728 119.68164 26.650391 C 119.68164 18.471054 113.05239 11.839844 104.87305 11.839844 z M 155.41992 11.839844 C 147.16658 11.674179 140.42691 18.396637 140.57031 26.650391 C 140.57032 34.970391 146.56992 41.460938 155.41992 41.460938 C 163.59925 41.460938 170.23047 34.829728 170.23047 26.650391 C 170.23047 18.471054 163.59926 11.839844 155.41992 11.839844 z M 169.81055 12.419922 L 180.08008 26.330078 L 169.17969 40.869141 L 177.66016 40.869141 L 184.25 31.589844 L 191.08008 40.880859 L 199.57031 40.880859 L 188.57031 26.279297 L 199 12.419922 L 190.61914 12.419922 L 184.40039 21.169922 L 178.33984 12.419922 L 169.81055 12.419922 z M 45.677734 18.570312 C 50.095034 18.570312 53.630796 22.235916 53.472656 26.650391 C 53.630796 31.064866 50.095034 34.728516 45.677734 34.728516 C 41.260434 34.728516 37.724672 31.064866 37.882812 26.650391 C 37.724673 22.235916 41.260434 18.570312 45.677734 18.570312 z M 104.87695 18.570312 C 109.29425 18.570312 112.83002 22.235916 112.67188 26.650391 C 112.83001 31.064866 109.29425 34.728516 104.87695 34.728516 C 100.45965 34.728516 96.923891 31.064866 97.082031 26.650391 C 96.923891 22.235916 100.45965 18.570312 104.87695 18.570312 z M 155.42578 18.570312 C 159.84308 18.570312 163.37884 22.235916 163.2207 26.650391 C 163.37884 31.064866 159.84308 34.728516 155.42578 34.728516 C 151.00848 34.728516 147.47272 31.064866 147.63086 26.650391 C 147.47272 22.235916 151.00848 18.570312 155.42578 18.570312 z "/></svg>